<svg width="45" height="45" fill="none" xmlns="http://www.w3.org/2000/svg"><circle cx="22.5" cy="22.5" r="22.5" fill="#037E8C"/><g clip-path="url(#a)"><path d="m33.426 20.959-.002-.002-9.382-9.382c-.4-.4-.932-.62-1.497-.62-.566 0-1.098.22-1.498.62l-9.377 9.378-.01.01a2.12 2.12 0 0 0 .005 2.99 2.105 2.105 0 0 0 1.47.62h.374v6.904a2.481 2.481 0 0 0 2.478 2.478h3.67a.674.674 0 0 0 .674-.674v-5.413c0-.623.508-1.13 1.131-1.13h2.165c.624 0 1.13.507 1.13 1.13v5.413c0 .372.302.674.675.674h3.67a2.48 2.48 0 0 0 2.479-2.478v-6.904h.346c.566 0 1.097-.22 1.498-.62a2.12 2.12 0 0 0 0-2.994Zm-.954 2.04a.765.765 0 0 1-.545.226h-1.02a.674.674 0 0 0-.674.674v7.578c0 .623-.507 1.13-1.13 1.13h-2.998v-4.739a2.481 2.481 0 0 0-2.478-2.478h-2.165a2.481 2.481 0 0 0-2.478 2.478v4.74h-2.997c-.623 0-1.13-.508-1.13-1.131v-7.578a.674.674 0 0 0-.674-.674H13.18a.764.764 0 0 1-.562-.226.77.77 0 0 1 0-1.088v-.001l9.383-9.382a.764.764 0 0 1 .544-.225c.205 0 .398.08.544.225l9.38 9.38.004.004c.299.3.298.788-.001 1.087Z" fill="#fff"/></g><defs><clipPath id="a"><path fill="#fff" transform="translate(11 11)" d="M0 0h23v23H0z"/></clipPath></defs></svg>