<svg width="45" height="45" fill="none" xmlns="http://www.w3.org/2000/svg"><circle cx="22.5" cy="22.5" r="22.5" fill="#037E8C"/><path d="M27.53 34a6.409 6.409 0 0 1-2.198-.393 23.442 23.442 0 0 1-8.513-5.426 23.442 23.442 0 0 1-5.426-8.513 6.362 6.362 0 0 1-.324-3.127 6.51 6.51 0 0 1 1.107-2.776 6.54 6.54 0 0 1 2.245-1.999A6.405 6.405 0 0 1 17.488 11c.339 0 .632.237.703.568l1.128 5.265a.719.719 0 0 1-.195.659l-1.927 1.927a18.918 18.918 0 0 0 8.384 8.385l1.928-1.928a.719.719 0 0 1 .659-.195l5.264 1.129a.719.719 0 0 1 .568.702c0 1.09-.257 2.122-.766 3.067a6.513 6.513 0 0 1-4.775 3.353c-.31.045-.62.068-.929.068ZM16.914 12.469a4.978 4.978 0 0 0-3.56 2.12 4.952 4.952 0 0 0-.61 4.589 21.8 21.8 0 0 0 13.079 13.078 4.952 4.952 0 0 0 4.587-.61 4.978 4.978 0 0 0 2.122-3.56l-4.283-.917-2.013 2.013a.719.719 0 0 1-.814.143 20.351 20.351 0 0 1-9.746-9.746.719.719 0 0 1 .142-.814l2.013-2.013-.917-4.283Z" fill="#fff"/></svg>