<svg width="43" height="45" fill="none" xmlns="http://www.w3.org/2000/svg"><ellipse cx="21.406" cy="22.5" rx="21.406" ry="22.5" fill="#037E8C"/><path d="M31.207 13H11.604c-1.151 0-2.09.986-2.09 2.197v14.649c0 1.207.935 2.197 2.09 2.197h19.604c1.148 0 2.09-.983 2.09-2.197V15.197c0-1.207-.935-2.197-2.09-2.197Zm-.288 1.465-9.469 9.953-9.55-9.953h19.019ZM10.907 29.542V15.494l6.712 6.994-6.712 7.054Zm.986 1.036 6.715-7.059 2.354 2.452a.673.673 0 0 0 .983-.002l2.294-2.412 6.68 7.021H11.893Zm20.011-1.036-6.68-7.02 6.68-7.021v14.041Z" fill="#fff"/></svg>