<svg width="53" height="45" fill="none" xmlns="http://www.w3.org/2000/svg"><circle cx="30.5" cy="22.5" r="22.5" fill="#037E8C"/><path d="M.4 21.4c-.4 4.8 1 8.8 4 12.4 3 3.6 7 5.2 11.8 5.2h20c1 0 2-.4 2.8-1.2.8-.8 1.2-1.8 1.2-2.8v-1.6c0-1.2-.2-2.6-.4-4.4H23.4c-2 0-3.6-.8-5-2.2-1.4-1.4-2.2-3.2-2.2-5 0-3.2 1.4-5.4 4.4-6.6l9.6-4.2c-3.4-2.4-7.4-3.8-12-4-4.4-.4-8.4 1-12 3.8C2.6 13.6.8 17 .4 21.4Zm19.8.4c0 .8.4 1.6 1 2.2.6.6 1.4 1 2.2 1H39c-1.2-4.4-3-8-5.6-10.8l-11.2 4.6c-1.4.4-2 1.4-2 3Z" fill="#121214"/></svg>