<svg width="58" height="45" fill="none" xmlns="http://www.w3.org/2000/svg"><circle cx="35.5" cy="22.5" r="22.5" fill="#037E8C"/><path fill-rule="evenodd" clip-rule="evenodd" d="M18 17c0 6.177-3.5 11.264-8 11.927V38h16v-8.954h-4.727a3.273 3.273 0 0 1-1.468-6.199 4.092 4.092 0 0 1 2.411-4.968 4.91 4.91 0 1 1 9.568 0 4.092 4.092 0 0 1 2.411 4.968 3.273 3.273 0 0 1-1.468 6.199H28V38h6.5a1.5 1.5 0 1 1 0 3h-33a1.5 1.5 0 1 1 0-3H8v-9.073C3.5 28.264 0 23.177 0 17 0 10.373 4.03 5 9 5s9 5.373 9 12Z" fill="#121214"/></svg>