<svg width="41" height="41" fill="none" xmlns="http://www.w3.org/2000/svg"><path d="M20.529 26.314c3.35 0 6.067-2.632 6.067-5.88 0-3.246-2.716-5.878-6.067-5.878-3.35 0-6.067 2.632-6.067 5.879 0 3.247 2.716 5.88 6.067 5.88Z" fill="#121214"/><path d="M29.92 20.763c0 5.025-4.205 9.098-9.391 9.098s-9.39-4.073-9.39-9.098c0-.9.135-1.77.387-2.592H8.75v12.762c0 .661.54 1.201 1.2 1.201h21.04c.66 0 1.2-.54 1.2-1.2V18.17h-2.659c.251.822.388 1.692.388 2.592ZM27.403 14.727h3.414c.749 0 1.36-.612 1.36-1.36V10.11c0-.748-.611-1.36-1.36-1.36h-3.414c-.749 0-1.36.612-1.36 1.36v3.256c0 .748.611 1.36 1.36 1.36Z" fill="#121214"/><path d="M20.5 0C9.178 0 0 9.178 0 20.5S9.178 41 20.5 41 41 31.822 41 20.5 31.822 0 20.5 0Zm11.228 35.606H9.272c-2.134 0-3.878-1.579-3.878-3.877V9.272c0-2.3 1.744-3.878 3.878-3.878h22.456c2.134 0 3.878 1.579 3.878 3.878v22.457c0 2.298-1.745 3.877-3.878 3.877Z" fill="#121214"/></svg>