<svg width="41" height="41" fill="none" xmlns="http://www.w3.org/2000/svg"><circle cx="20.5" cy="20.5" r="20.5" fill="#121214"/><path d="M27.948 22.828c-.368-.189-2.203-1.087-2.544-1.209-.341-.128-.591-.19-.838.19-.25.374-.96 1.209-1.182 1.462-.216.25-.436.28-.804.095-2.19-1.095-3.625-1.953-5.068-4.43-.381-.658.382-.61 1.095-2.033.122-.25.06-.463-.034-.652-.094-.19-.838-2.02-1.149-2.767-.3-.726-.61-.625-.837-.639-.216-.013-.463-.013-.713-.013-.25 0-.652.095-.993.463-.341.375-1.304 1.277-1.304 3.108 0 1.83 1.334 3.605 1.517 3.855.189.25 2.624 4.006 6.364 5.624 2.365 1.02 3.29 1.108 4.473.933.72-.108 2.203-.899 2.51-1.774.308-.871.308-1.618.216-1.773-.09-.166-.34-.26-.71-.44Z" fill="#fff"/><path d="M35.1 13.995a15.14 15.14 0 0 0-3.254-4.841 15.012 15.012 0 0 0-4.84-3.254 15.063 15.063 0 0 0-5.865-1.175h-.068a15.1 15.1 0 0 0-10.692 4.472 14.997 14.997 0 0 0-3.216 4.825 15.14 15.14 0 0 0-1.16 5.908c.011 2.345.572 4.672 1.622 6.753v5.136c0 .858.696 1.554 1.554 1.554h5.139a15.182 15.182 0 0 0 6.753 1.621h.071c2.024 0 3.986-.392 5.834-1.159a15.015 15.015 0 0 0 4.824-3.216 15.099 15.099 0 0 0 4.473-10.692 15.079 15.079 0 0 0-1.175-5.932Zm-5.105 14.797a12.5 12.5 0 0 1-8.854 3.635h-.058a12.61 12.61 0 0 1-5.848-1.47l-.283-.152h-4.757v-4.757l-.152-.283a12.612 12.612 0 0 1-1.47-5.848c-.013-3.368 1.274-6.53 3.635-8.912a12.473 12.473 0 0 1 8.879-3.713h.057c1.69 0 3.328.328 4.872.976a12.486 12.486 0 0 1 4.02 2.703 12.504 12.504 0 0 1 2.702 4.02c.656 1.561.983 3.216.977 4.926a12.52 12.52 0 0 1-3.72 8.875Z" fill="#fff"/></svg>